<?xml version="1.0" encoding="UTF-8" standalone="no"?>
<svg
   xmlns:dc="http://purl.org/dc/elements/1.1/"
   xmlns:cc="http://creativecommons.org/ns#"
   xmlns:rdf="http://www.w3.org/1999/02/22-rdf-syntax-ns#"
   xmlns:svg="http://www.w3.org/2000/svg"
   xmlns="http://www.w3.org/2000/svg"
   xmlns:sodipodi="http://sodipodi.sourceforge.net/DTD/sodipodi-0.dtd"
   xmlns:inkscape="http://www.inkscape.org/namespaces/inkscape"
   version="1.1"
   viewBox="0 0 100 100"
   stroke-miterlimit="10"
   id="svg2"
   inkscape:version="0.91 r13725"
   sodipodi:docname="diversicon-core-100px.svg"
   width="100"
   height="100"
   style="fill:none;stroke:none;stroke-linecap:square;stroke-miterlimit:10"
   inkscape:export-filename="/home/da/Da/prj/diversicon-core/prj/docs/img/diversicon-core-100px.png"
   inkscape:export-xdpi="90"
   inkscape:export-ydpi="90">
  <metadata
     id="metadata31">
    <rdf:RDF>
      <cc:Work
         rdf:about="">
        <dc:format>image/svg+xml</dc:format>
        <dc:type
           rdf:resource="http://purl.org/dc/dcmitype/StillImage" />
        <dc:title></dc:title>
      </cc:Work>
    </rdf:RDF>
  </metadata>
  <defs
     id="defs29" />
  <sodipodi:namedview
     pagecolor="#ffffff"
     bordercolor="#666666"
     borderopacity="1"
     objecttolerance="10"
     gridtolerance="10"
     guidetolerance="10"
     inkscape:pageopacity="0"
     inkscape:pageshadow="2"
     inkscape:window-width="1366"
     inkscape:window-height="739"
     id="namedview27"
     showgrid="false"
     inkscape:zoom="1"
     inkscape:cx="-30.584474"
     inkscape:cy="221.21871"
     inkscape:window-x="0"
     inkscape:window-y="0"
     inkscape:window-maximized="1"
     inkscape:current-layer="g7" />
  <clipPath
     id="p.0">
    <path
       d="M 0,0 960,0 960,720 0,720 0,0 Z"
       id="path5"
       inkscape:connector-curvature="0"
       style="clip-rule:nonzero" />
  </clipPath>
  <g
     clip-path="url(#p.0)"
     id="g7"
     transform="translate(-102.74577,-610.84746)">
    <path
       d="m 0,0 960,0 0,720 -960,0 z"
       id="path9"
       inkscape:connector-curvature="0"
       style="fill:#000000;fill-opacity:0;fill-rule:nonzero" />
    <path
       d="m 131.11667,671.80638 35.22933,0 0,5.43217 -35.22933,0 z"
       id="path13"
       inkscape:connector-curvature="0"
       style="fill:#60fff6;fill-opacity:1;fill-rule:nonzero;stroke:#5d9fff;stroke-width:1.21677649;stroke-linecap:butt;stroke-linejoin:round;stroke-miterlimit:10;stroke-dasharray:none;stroke-opacity:1" />
    <path
       d="m 135.48291,688.08075 23.51496,-44.72304 5.40008,2.63797 -23.51496,44.72305 z"
       id="path15"
       inkscape:connector-curvature="0"
       style="fill:#134f5c;fill-rule:nonzero" />
    <path
       d="m 135.48291,688.08075 23.51496,-44.72304 5.40008,2.63797 -23.51496,44.72305 z"
       id="path17"
       inkscape:connector-curvature="0"
       style="fill-rule:nonzero;stroke:#000000;stroke-width:0.12167764;stroke-linecap:butt;stroke-linejoin:round" />
    <path
       d="m 139.54509,622.91956 c -0.43927,0.73099 12.00886,6.95368 17.39,11.39079 5.38114,4.43712 11.20044,10.11547 14.89685,15.23189 3.6964,5.11641 6.22755,10.59972 7.28159,15.4666 1.05404,4.86688 0.63768,9.57141 -0.95735,13.73468 -1.59504,4.16327 -3.87877,7.06008 -8.61284,11.24494 -7.59985,4.89162 -11.98076,5.73353 -22.9532,4.99532 -6.25472,0.0836 -24.78768,-6.50203 -23.73588,-5.19819 1.05181,1.30382 17.27095,10.10599 25.17961,12.04777 15.99054,3.81104 29.10502,0.41354 36.77181,-8.02897 7.43446,-8.10874 8.79279,-20.83788 6.17975,-29.84846 -1.80601,-6.00193 -5.79747,-12.70021 -10.90952,-18.37214 -5.11204,-5.67192 -13.75003,-11.88204 -20.50516,-15.65942 -6.75514,-3.77737 -19.58637,-7.73581 -20.02566,-7.00481 z"
       id="path19"
       inkscape:connector-curvature="0"
       style="fill:#134f5c;fill-rule:nonzero"
       sodipodi:nodetypes="cssssccscccsscc" />
    <path
       d="m 131.26114,658.26777 35.22933,0 0,5.43218 -35.22933,0 z"
       id="path25"
       inkscape:connector-curvature="0"
       style="fill:#60fff6;fill-opacity:1;fill-rule:nonzero;stroke:#5d9fff;stroke-width:1.21677649;stroke-linecap:butt;stroke-linejoin:round;stroke-miterlimit:10;stroke-dasharray:none;stroke-opacity:1" />
  </g>
</svg>
