<?xml version="1.0" encoding="UTF-8" standalone="no"?>
<svg
   xmlns:dc="http://purl.org/dc/elements/1.1/"
   xmlns:cc="http://creativecommons.org/ns#"
   xmlns:rdf="http://www.w3.org/1999/02/22-rdf-syntax-ns#"
   xmlns:svg="http://www.w3.org/2000/svg"
   xmlns="http://www.w3.org/2000/svg"
   xmlns:sodipodi="http://sodipodi.sourceforge.net/DTD/sodipodi-0.dtd"
   xmlns:inkscape="http://www.inkscape.org/namespaces/inkscape"
   version="1.1"
   viewBox="0 0 720 720"
   stroke-miterlimit="10"
   id="svg2"
   inkscape:version="0.91 r13725"
   sodipodi:docname="diversicon-core-200.svg"
   width="720"
   height="720"
   style="fill:none;stroke:none;stroke-linecap:square;stroke-miterlimit:10"
   inkscape:export-filename="/home/da/Da/prj/diversicon-core/prj/docs/img/diversicon-500px.png"
   inkscape:export-xdpi="62.5"
   inkscape:export-ydpi="62.5">
  <metadata
     id="metadata31">
    <rdf:RDF>
      <cc:Work
         rdf:about="">
        <dc:format>image/svg+xml</dc:format>
        <dc:type
           rdf:resource="http://purl.org/dc/dcmitype/StillImage" />
        <dc:title></dc:title>
      </cc:Work>
    </rdf:RDF>
  </metadata>
  <defs
     id="defs29" />
  <sodipodi:namedview
     pagecolor="#ffffff"
     bordercolor="#666666"
     borderopacity="1"
     objecttolerance="10"
     gridtolerance="10"
     guidetolerance="10"
     inkscape:pageopacity="0"
     inkscape:pageshadow="2"
     inkscape:window-width="1366"
     inkscape:window-height="739"
     id="namedview27"
     showgrid="false"
     inkscape:zoom="0.32777778"
     inkscape:cx="436.82521"
     inkscape:cy="417.60068"
     inkscape:window-x="0"
     inkscape:window-y="0"
     inkscape:window-maximized="1"
     inkscape:current-layer="g7" />
  <clipPath
     id="p.0">
    <path
       d="M 0,0 960,0 960,720 0,720 0,0 Z"
       id="path5"
       inkscape:connector-curvature="0"
       style="clip-rule:nonzero" />
  </clipPath>
  <g
     clip-path="url(#p.0)"
     id="g7"
     transform="translate(-102.74577,9.1525423)">
    <path
       d="m 0,0 960,0 0,720 -960,0 z"
       id="path9"
       inkscape:connector-curvature="0"
       style="fill:#000000;fill-opacity:0;fill-rule:nonzero" />
    <path
       d="m 237.06874,426.84348 289.52997,0 0,44.64395 -289.52997,0 z"
       id="path13"
       inkscape:connector-curvature="0"
       style="fill:#bdfaff;fill-opacity:1;fill-rule:nonzero;stroke:#1f8f90;stroke-width:8;stroke-linecap:butt;stroke-linejoin:round;stroke-miterlimit:10;stroke-dasharray:none;stroke-opacity:1" />
    <path
       d="M 272.95248,560.5933 466.20861,193.03983 510.58886,214.71991 317.3327,582.27335 Z"
       id="path15"
       inkscape:connector-curvature="0"
       style="fill:#134f5c;fill-rule:nonzero" />
    <path
       d="M 272.95248,560.5933 466.20861,193.03983 510.58886,214.71991 317.3327,582.27335 Z"
       id="path17"
       inkscape:connector-curvature="0"
       style="fill-rule:nonzero;stroke:#000000;stroke-width:1;stroke-linecap:butt;stroke-linejoin:round" />
    <path
       d="m 306.33726,25.070202 c -3.61017,6.007645 98.694,57.148415 142.91855,93.614538 44.22455,36.46614 92.05011,83.13332 122.42877,125.18224 30.37866,42.04892 51.18079,87.11316 59.84332,127.1113 8.6626,39.99814 5.24073,78.66202 -7.86792,112.8776 -13.1087,34.21554 -31.87737,58.02278 -70.78412,92.41577 -62.45884,40.20155 -98.46306,47.12077 -188.63934,41.05377 -51.40406,0.68655 -203.71603,-53.43652 -195.07184,-42.72101 8.64419,10.71545 141.94022,83.05548 206.93701,99.01385 131.4173,31.32075 239.19776,3.39866 302.20684,-65.98559 61.09954,-66.6412 72.26293,-171.25484 50.78783,-245.30762 C 714.25376,312.99854 681.4502,257.94912 639.4372,211.33475 597.42426,164.72039 526.43348,113.68296 470.91681,82.638862 415.40014,51.594768 309.94742,19.062545 306.33725,25.07019 Z"
       id="path19"
       inkscape:connector-curvature="0"
       style="fill:#134f5c;fill-rule:nonzero"
       sodipodi:nodetypes="cssssccscccsscc" />
    <path
       d="m 238.25606,315.57724 289.52997,0 0,44.64398 -289.52997,0 z"
       id="path25"
       inkscape:connector-curvature="0"
       style="fill:#bdfaff;fill-opacity:1;fill-rule:nonzero;stroke:#1f8f90;stroke-width:8;stroke-linecap:butt;stroke-linejoin:round;stroke-miterlimit:10;stroke-dasharray:none;stroke-opacity:1" />
  </g>
</svg>
