<?xml version="1.0" encoding="UTF-8" standalone="no"?>
<svg
   xmlns:dc="http://purl.org/dc/elements/1.1/"
   xmlns:cc="http://creativecommons.org/ns#"
   xmlns:rdf="http://www.w3.org/1999/02/22-rdf-syntax-ns#"
   xmlns:svg="http://www.w3.org/2000/svg"
   xmlns="http://www.w3.org/2000/svg"
   xmlns:sodipodi="http://sodipodi.sourceforge.net/DTD/sodipodi-0.dtd"
   xmlns:inkscape="http://www.inkscape.org/namespaces/inkscape"
   version="1.1"
   viewBox="0 0 200 200"
   stroke-miterlimit="10"
   id="svg2"
   inkscape:version="0.91 r13725"
   sodipodi:docname="diversicon-core-200px.svg"
   width="200"
   height="200"
   style="fill:none;stroke:none;stroke-linecap:square;stroke-miterlimit:10"
   inkscape:export-filename="/home/da/Da/prj/diversicon-core/prj/docs/img/diversicon-200px.png"
   inkscape:export-xdpi="25"
   inkscape:export-ydpi="25">
  <metadata
     id="metadata31">
    <rdf:RDF>
      <cc:Work
         rdf:about="">
        <dc:format>image/svg+xml</dc:format>
        <dc:type
           rdf:resource="http://purl.org/dc/dcmitype/StillImage" />
        <dc:title></dc:title>
      </cc:Work>
    </rdf:RDF>
  </metadata>
  <defs
     id="defs29" />
  <sodipodi:namedview
     pagecolor="#ffffff"
     bordercolor="#666666"
     borderopacity="1"
     objecttolerance="10"
     gridtolerance="10"
     guidetolerance="10"
     inkscape:pageopacity="0"
     inkscape:pageshadow="2"
     inkscape:window-width="1366"
     inkscape:window-height="739"
     id="namedview27"
     showgrid="false"
     inkscape:zoom="0.4635478"
     inkscape:cx="-30.584474"
     inkscape:cy="421.21871"
     inkscape:window-x="0"
     inkscape:window-y="0"
     inkscape:window-maximized="1"
     inkscape:current-layer="g7" />
  <clipPath
     id="p.0">
    <path
       d="M 0,0 960,0 960,720 0,720 0,0 Z"
       id="path5"
       inkscape:connector-curvature="0"
       style="clip-rule:nonzero" />
  </clipPath>
  <g
     clip-path="url(#p.0)"
     id="g7"
     transform="translate(-102.74577,-510.84746)">
    <path
       d="m 0,0 960,0 0,720 -960,0 z"
       id="path9"
       inkscape:connector-curvature="0"
       style="fill:#000000;fill-opacity:0;fill-rule:nonzero" />
    <path
       d="m 158.91605,629.14986 68.31222,0 0,10.53338 -68.31222,0 z"
       id="path13"
       inkscape:connector-curvature="0"
       style="fill:#60fff6;fill-opacity:1;fill-rule:nonzero;stroke:#5d9fff;stroke-width:2.35941792;stroke-linecap:butt;stroke-linejoin:round;stroke-miterlimit:10;stroke-dasharray:none;stroke-opacity:1" />
    <path
       d="m 167.38252,660.70704 45.5972,-86.72123 10.47116,5.11524 -45.59721,86.72122 z"
       id="path15"
       inkscape:connector-curvature="0"
       style="fill:#134f5c;fill-rule:nonzero" />
    <path
       d="m 167.38252,660.70704 45.5972,-86.72123 10.47116,5.11524 -45.59721,86.72122 z"
       id="path17"
       inkscape:connector-curvature="0"
       style="fill-rule:nonzero;stroke:#000000;stroke-width:0.23594178;stroke-linecap:butt;stroke-linejoin:round" />
    <path
       d="m 175.25939,534.35476 c -0.85179,1.41745 23.28604,13.4837 33.72046,22.08758 10.43442,8.60389 21.71846,19.61462 28.88606,29.53572 7.16759,9.9211 12.07569,20.55364 14.11954,29.99087 2.04387,9.43723 1.23651,18.55966 -1.85637,26.63254 -3.09289,8.07288 -7.52121,13.69 -16.70093,21.80474 -14.73665,9.48523 -23.23155,11.11776 -44.50791,9.6863 -12.12836,0.16199 -48.06512,-12.6079 -46.0256,-10.07967 2.03953,2.52822 33.48963,19.59626 48.82509,23.36151 31.00683,7.38987 56.43675,0.80188 71.30322,-15.56876 14.41594,-15.72344 17.04985,-40.40617 11.98298,-57.87832 -3.50199,-11.63818 -11.24172,-24.62664 -21.15435,-35.62492 -9.91261,-10.99828 -26.6623,-23.04014 -39.761,-30.36474 -13.0987,-7.3246 -37.9794,-15.00031 -38.83119,-13.58285 z"
       id="path19"
       inkscape:connector-curvature="0"
       style="fill:#134f5c;fill-rule:nonzero"
       sodipodi:nodetypes="cssssccscccsscc" />
    <path
       d="m 159.19619,602.89751 68.31222,0 0,10.53338 -68.31222,0 z"
       id="path25"
       inkscape:connector-curvature="0"
       style="fill:#60fff6;fill-opacity:1;fill-rule:nonzero;stroke:#5d9fff;stroke-width:2.35941792;stroke-linecap:butt;stroke-linejoin:round;stroke-miterlimit:10;stroke-dasharray:none;stroke-opacity:1" />
  </g>
</svg>
