<?xml version="1.0" encoding="UTF-8" standalone="no"?>
<svg
   xmlns:dc="http://purl.org/dc/elements/1.1/"
   xmlns:cc="http://creativecommons.org/ns#"
   xmlns:rdf="http://www.w3.org/1999/02/22-rdf-syntax-ns#"
   xmlns:svg="http://www.w3.org/2000/svg"
   xmlns="http://www.w3.org/2000/svg"
   xmlns:sodipodi="http://sodipodi.sourceforge.net/DTD/sodipodi-0.dtd"
   xmlns:inkscape="http://www.inkscape.org/namespaces/inkscape"
   version="1.1"
   viewBox="0 0 50 50"
   stroke-miterlimit="10"
   id="svg2"
   inkscape:version="0.91 r13725"
   sodipodi:docname="diversicon-core-50px.svg"
   width="50"
   height="50"
   style="fill:none;stroke:none;stroke-linecap:square;stroke-miterlimit:10"
   inkscape:export-filename="/home/da/Da/prj/diversicon-core/prj/docs/img/diversicon-core-50px.png"
   inkscape:export-xdpi="90"
   inkscape:export-ydpi="90">
  <metadata
     id="metadata31">
    <rdf:RDF>
      <cc:Work
         rdf:about="">
        <dc:format>image/svg+xml</dc:format>
        <dc:type
           rdf:resource="http://purl.org/dc/dcmitype/StillImage" />
        <dc:title></dc:title>
      </cc:Work>
    </rdf:RDF>
  </metadata>
  <defs
     id="defs29" />
  <sodipodi:namedview
     pagecolor="#ffffff"
     bordercolor="#666666"
     borderopacity="1"
     objecttolerance="10"
     gridtolerance="10"
     guidetolerance="10"
     inkscape:pageopacity="0"
     inkscape:pageshadow="2"
     inkscape:window-width="1366"
     inkscape:window-height="739"
     id="namedview27"
     showgrid="false"
     inkscape:zoom="1"
     inkscape:cx="14.511327"
     inkscape:cy="18.820727"
     inkscape:window-x="0"
     inkscape:window-y="0"
     inkscape:window-maximized="1"
     inkscape:current-layer="g7" />
  <clipPath
     id="p.0">
    <path
       d="M 0,0 960,0 960,720 0,720 0,0 Z"
       id="path5"
       inkscape:connector-curvature="0"
       style="clip-rule:nonzero" />
  </clipPath>
  <g
     clip-path="url(#p.0)"
     id="g7"
     transform="translate(-102.74577,-660.84746)">
    <path
       d="m 0,0 960,0 0,720 -960,0 z"
       id="path9"
       inkscape:connector-curvature="0"
       style="fill:#000000;fill-opacity:0;fill-rule:nonzero" />
    <path
       d="m 118.56155,698.44117 10.6709,-20.29496 2.45052,1.19709 -10.6709,20.29496 z"
       id="path15"
       inkscape:connector-curvature="0"
       style="fill:#134f5c;fill-rule:nonzero" />
    <path
       d="m 118.56155,698.44117 10.6709,-20.29496 2.45052,1.19709 -10.6709,20.29496 z"
       id="path17"
       inkscape:connector-curvature="0"
       style="fill-rule:nonzero;stroke:#000000;stroke-width:0.05521634;stroke-linecap:butt;stroke-linejoin:round" />
    <path
       d="m 120.40494,668.87154 c -0.19934,0.33171 5.44952,3.15552 7.89144,5.16905 2.44192,2.01353 5.08267,4.59032 6.76007,6.91211 1.6774,2.32178 2.82601,4.81007 3.30433,7.01862 0.47831,2.20855 0.28937,4.34343 -0.43444,6.23269 -0.72381,1.88925 -1.76015,3.2038 -3.90844,5.10286 -3.44875,2.21978 -5.43677,2.60183 -10.41598,2.26684 -2.83834,0.0379 -11.24845,-2.95057 -10.77115,-2.3589 0.4773,0.59166 7.83742,4.58602 11.42631,5.46718 7.25638,1.72942 13.20762,0.18766 16.68675,-3.64348 3.3737,-3.67968 3.9901,-9.45607 2.80432,-13.545 -0.81955,-2.72362 -2.63084,-5.76325 -4.95065,-8.33713 -2.3198,-2.57387 -6.23965,-5.39197 -9.30508,-7.10612 -3.06543,-1.71414 -8.88814,-3.51045 -9.08748,-3.17872 z"
       id="path19"
       inkscape:connector-curvature="0"
       style="fill:#134f5c;fill-rule:nonzero"
       sodipodi:nodetypes="cssssccscccsscc" />
    <path
       d="m 116.54219,683.91227 15.98679,0 0,3.52053 -15.98679,0 z"
       id="path25"
       inkscape:connector-curvature="0"
       style="fill:#db87ff;fill-opacity:1;fill-rule:nonzero;stroke:none;stroke-width:0.55199999;stroke-linecap:butt;stroke-linejoin:round;stroke-miterlimit:10;stroke-dasharray:none;stroke-opacity:1" />
    <path
       d="m 116.38824,690.08372 15.98679,0 0,3.62408 -15.98679,0 z"
       id="path13"
       inkscape:connector-curvature="0"
       style="fill:#db87ff;fill-opacity:1;fill-rule:nonzero;stroke:none;stroke-width:0.55199999;stroke-linecap:butt;stroke-linejoin:round;stroke-miterlimit:10;stroke-dasharray:none;stroke-opacity:1" />
  </g>
</svg>
