<?xml version="1.0" encoding="UTF-8" standalone="no"?>
<svg
   xmlns:dc="http://purl.org/dc/elements/1.1/"
   xmlns:cc="http://creativecommons.org/ns#"
   xmlns:rdf="http://www.w3.org/1999/02/22-rdf-syntax-ns#"
   xmlns:svg="http://www.w3.org/2000/svg"
   xmlns="http://www.w3.org/2000/svg"
   xmlns:sodipodi="http://sodipodi.sourceforge.net/DTD/sodipodi-0.dtd"
   xmlns:inkscape="http://www.inkscape.org/namespaces/inkscape"
   version="1.1"
   viewBox="0 0 280 70"
   stroke-miterlimit="10"
   id="svg2"
   inkscape:version="0.91 r13725"
   sodipodi:docname="diversicon-core-writing-75px.svg"
   width="280"
   height="70"
   style="fill:none;stroke:none;stroke-linecap:square;stroke-miterlimit:10"
   inkscape:export-filename="/home/da/Da/prj/diversicon-core/prj/docs/img/diversicon-core-writing-100px.png"
   inkscape:export-xdpi="90"
   inkscape:export-ydpi="90">
  <metadata
     id="metadata31">
    <rdf:RDF>
      <cc:Work
         rdf:about="">
        <dc:format>image/svg+xml</dc:format>
        <dc:type
           rdf:resource="http://purl.org/dc/dcmitype/StillImage" />
        <dc:title></dc:title>
      </cc:Work>
    </rdf:RDF>
  </metadata>
  <defs
     id="defs29" />
  <sodipodi:namedview
     pagecolor="#ffffff"
     bordercolor="#666666"
     borderopacity="1"
     objecttolerance="10"
     gridtolerance="10"
     guidetolerance="10"
     inkscape:pageopacity="0"
     inkscape:pageshadow="2"
     inkscape:window-width="1366"
     inkscape:window-height="739"
     id="namedview27"
     showgrid="false"
     inkscape:zoom="1"
     inkscape:cx="-30.584474"
     inkscape:cy="141.21871"
     inkscape:window-x="0"
     inkscape:window-y="0"
     inkscape:window-maximized="1"
     inkscape:current-layer="g7" />
  <clipPath
     id="p.0">
    <path
       d="M 0,0 960,0 960,720 0,720 0,0 Z"
       id="path5"
       inkscape:connector-curvature="0"
       style="clip-rule:nonzero" />
  </clipPath>
  <g
     clip-path="url(#p.0)"
     id="g7"
     transform="translate(-102.74577,-640.84746)">
    <path
       d="m 0,0 960,0 0,720 -960,0 z"
       id="path9"
       inkscape:connector-curvature="0"
       style="fill:#000000;fill-opacity:0;fill-rule:nonzero" />
    <path
       d="m 118.62792,679.53833 24.29607,0 0,3.74632 -24.29607,0 z"
       id="path13"
       inkscape:connector-curvature="0"
       style="fill:#60fff6;fill-opacity:1;fill-rule:nonzero;stroke:#5d9fff;stroke-width:0.83915544;stroke-linecap:butt;stroke-linejoin:round;stroke-miterlimit:10;stroke-dasharray:none;stroke-opacity:1" />
    <path
       d="m 121.63912,690.76202 16.21719,-30.84345 3.72419,1.81929 -16.2172,30.84346 z"
       id="path15"
       inkscape:connector-curvature="0"
       style="fill:#134f5c;fill-rule:nonzero" />
    <path
       d="m 121.63912,690.76202 16.21719,-30.84345 3.72419,1.81929 -16.2172,30.84346 z"
       id="path17"
       inkscape:connector-curvature="0"
       style="fill-rule:nonzero;stroke:#000000;stroke-width:0.08391554;stroke-linecap:butt;stroke-linejoin:round" />
    <path
       d="m 127.88889,647.89227 c -0.30295,0.50413 8.28196,4.79564 11.99309,7.85571 3.71113,3.06008 7.72444,6.97618 10.27368,10.50475 2.54924,3.52855 4.29486,7.31014 5.02178,10.66661 0.72693,3.35646 0.43978,6.60096 -0.66024,9.47218 -1.10002,2.87122 -2.67501,4.86902 -5.93988,7.75513 -5.24127,3.37353 -8.26259,3.95415 -15.82978,3.44504 -4.3136,0.0577 -17.09494,-4.48415 -16.36956,-3.58495 0.72539,0.89918 11.91099,6.96964 17.36523,8.3088 11.02795,2.6283 20.07241,0.2852 25.35985,-5.53722 5.12721,-5.59223 6.06399,-14.37094 4.26189,-20.58513 -1.24552,-4.13925 -3.99825,-8.75875 -7.5238,-12.67043 -3.52554,-3.91166 -9.48277,-8.1945 -14.14147,-10.79959 -4.65872,-2.60508 -13.50783,-5.33503 -13.81079,-4.8309 z"
       id="path19"
       inkscape:connector-curvature="0"
       style="fill:#134f5c;fill-rule:nonzero"
       sodipodi:nodetypes="cssssccscccsscc" />
    <path
       d="m 118.72755,670.20136 24.29607,0 0,3.74633 -24.29607,0 z"
       id="path25"
       inkscape:connector-curvature="0"
       style="fill:#60fff6;fill-opacity:1;fill-rule:nonzero;stroke:#5d9fff;stroke-width:0.83915544;stroke-linecap:butt;stroke-linejoin:round;stroke-miterlimit:10;stroke-dasharray:none;stroke-opacity:1" />
    <text
       xml:space="preserve"
       style="font-style:normal;font-weight:normal;font-size:43.72878647px;line-height:125%;font-family:Sans;letter-spacing:0px;word-spacing:0px;fill:#000000;fill-opacity:1;stroke:none;stroke-width:1px;stroke-linecap:butt;stroke-linejoin:miter;stroke-opacity:1"
       x="168.09355"
       y="697.07239"
       id="text4168"
       sodipodi:linespacing="125%"
       transform="matrix(0.99753768,0,0.00355444,1.0024684,0,0)"><tspan
         sodipodi:role="line"
         id="tspan4170"
         x="168.09355"
         y="697.07239"
         style="font-style:normal;font-variant:normal;font-weight:normal;font-stretch:normal;font-family:'Droid Sans Ethiopic';-inkscape-font-specification:'Droid Sans Ethiopic'">iversicon</tspan></text>
  </g>
</svg>
